<?xml version="1.0" standalone="no"?>
<!DOCTYPE svg PUBLIC "-//W3C//DTD SVG 20010904//EN"
 "http://www.w3.org/TR/2001/REC-SVG-20010904/DTD/svg10.dtd">
<svg version="1.0" xmlns="http://www.w3.org/2000/svg"
 width="1000.000000pt" height="1000.000000pt" viewBox="0 0 1000.000000 1000.000000"
 preserveAspectRatio="xMidYMid meet">

<g transform="translate(0.000000,1000.000000) scale(0.100000,-0.100000)"
fill="#9956ad" stroke="none">
<path d="M4765 9540 c-16 -4 -63 -8 -103 -9 -40 0 -103 -5 -140 -11 -37 -5
-103 -14 -147 -20 -104 -14 -251 -39 -295 -50 -19 -5 -102 -25 -185 -46 -165
-40 -376 -107 -557 -178 -133 -51 -457 -206 -563 -268 -161 -95 -444 -282
-515 -340 -9 -7 -49 -40 -90 -72 -256 -204 -515 -463 -716 -716 -32 -41 -65
-81 -72 -90 -58 -71 -245 -354 -340 -515 -62 -106 -217 -430 -268 -563 -102
-262 -195 -578 -233 -792 -65 -363 -85 -563 -85 -875 0 -312 20 -512 85 -875
38 -214 131 -529 234 -795 48 -124 226 -491 293 -605 74 -125 299 -461 321
-480 3 -3 33 -39 65 -80 199 -251 460 -512 716 -716 41 -32 81 -65 90 -72 71
-58 354 -245 515 -340 106 -62 430 -217 563 -268 262 -102 578 -195 792 -233
363 -65 563 -85 875 -85 312 0 512 20 875 85 214 38 529 131 795 234 124 48
491 226 605 293 125 74 461 299 480 321 3 3 39 33 80 66 254 201 517 464 716
715 32 41 62 77 65 80 22 19 247 355 321 480 67 114 245 481 293 605 103 266
196 581 234 795 65 363 85 563 85 875 0 312 -20 512 -85 875 -38 214 -131 530
-233 792 -51 133 -206 457 -268 563 -95 161 -282 444 -340 515 -7 9 -40 49
-72 90 -204 256 -465 517 -716 716 -41 32 -77 62 -80 65 -19 22 -355 247 -480
321 -114 67 -481 245 -605 293 -266 103 -581 196 -795 234 -354 64 -526 81
-860 86 -124 2 -238 0 -255 -5z m730 -584 c155 -21 327 -50 355 -59 8 -3 51
-13 95 -22 44 -9 91 -21 105 -25 14 -4 52 -16 85 -25 139 -40 337 -109 387
-136 10 -5 22 -9 28 -9 14 0 376 -178 460 -226 75 -43 370 -236 391 -256 8 -7
32 -26 54 -43 221 -164 546 -489 710 -710 17 -22 36 -46 43 -54 20 -21 213
-316 256 -391 44 -78 218 -430 236 -480 7 -19 18 -48 25 -65 13 -31 80 -230
108 -320 8 -27 27 -99 41 -160 45 -185 42 -173 76 -372 28 -170 35 -286 35
-608 0 -322 -7 -438 -35 -607 -34 -200 -31 -188 -76 -373 -14 -60 -33 -132
-41 -160 -28 -90 -95 -289 -108 -320 -7 -16 -18 -46 -25 -65 -18 -50 -192
-402 -236 -480 -43 -75 -236 -370 -256 -391 -7 -8 -26 -32 -43 -54 -164 -221
-489 -546 -710 -710 -22 -17 -46 -36 -54 -43 -21 -20 -316 -213 -391 -256 -84
-48 -446 -226 -460 -226 -6 0 -18 -4 -28 -9 -78 -42 -385 -142 -552 -180 -387
-89 -539 -106 -965 -106 -322 0 -438 7 -607 35 -148 25 -186 32 -223 40 -22 5
-71 17 -110 25 -177 40 -493 141 -577 186 -10 5 -22 9 -28 9 -14 0 -376 178
-460 226 -75 43 -370 236 -391 256 -8 7 -32 26 -54 43 -221 164 -546 489 -710
710 -17 22 -36 46 -43 54 -20 21 -213 316 -256 391 -44 78 -218 430 -236 480
-7 19 -18 49 -25 65 -13 31 -80 230 -108 320 -8 28 -27 100 -41 160 -45 185
-42 173 -76 373 -28 169 -35 285 -35 607 0 322 7 438 35 608 34 199 31 187 76
372 14 61 33 133 41 160 28 90 95 289 108 320 7 17 18 46 25 65 18 50 192 402
236 480 43 75 236 370 256 391 7 8 26 32 43 54 164 221 489 546 710 710 22 17
46 36 54 43 21 20 316 213 391 256 84 48 446 226 460 226 6 0 18 4 28 9 50 27
248 96 387 136 33 9 71 21 85 25 14 4 61 16 105 25 44 9 94 20 110 25 17 4 64
13 105 20 41 6 95 16 120 20 25 5 99 14 165 20 66 6 129 13 140 15 58 10 690
-5 790 -19z"/>
<path d="M3580 5615 l-1415 -1415 396 -396 396 -396 1020 1021 c562 562 1024
1021 1028 1021 4 0 466 -459 1028 -1021 l1020 -1021 396 396 396 396 -1415
1415 c-778 778 -1419 1415 -1425 1415 -6 0 -647 -637 -1425 -1415z"/>
</g>
</svg>
