<?xml version="1.0" standalone="no"?>
<!DOCTYPE svg PUBLIC "-//W3C//DTD SVG 20010904//EN"
 "http://www.w3.org/TR/2001/REC-SVG-20010904/DTD/svg10.dtd">
<svg version="1.0" xmlns="http://www.w3.org/2000/svg"
 width="1000.000000pt" height="1000.000000pt" viewBox="0 0 1000.000000 1000.000000"
 preserveAspectRatio="xMidYMid meet">

<g transform="translate(0.000000,1000.000000) scale(0.100000,-0.100000)"
fill="#27a619" stroke="none">
<path d="M4957 9809 c-7 -4 -78 -9 -159 -12 -81 -3 -152 -9 -158 -12 -6 -4
-25 -6 -43 -4 -17 1 -39 -1 -47 -4 -8 -3 -58 -11 -110 -18 -123 -16 -132 -17
-215 -30 -38 -6 -79 -12 -90 -12 -11 -1 -22 -5 -25 -8 -6 -7 -171 -44 -187
-43 -7 1 -13 -2 -13 -6 0 -6 -72 -26 -134 -37 -11 -2 -51 -15 -89 -28 -38 -14
-73 -23 -78 -19 -5 3 -9 1 -9 -5 0 -9 -51 -25 -66 -21 -4 1 -10 -3 -13 -9 -4
-6 -17 -12 -29 -14 -12 -2 -25 -6 -28 -10 -4 -4 -20 -7 -35 -7 -15 0 -29 -4
-31 -9 -1 -4 -59 -32 -128 -61 -69 -29 -146 -63 -172 -76 -27 -14 -48 -21 -48
-17 0 5 -4 3 -8 -3 -8 -13 -66 -44 -81 -44 -6 0 -27 -11 -47 -25 -20 -14 -40
-22 -45 -19 -5 3 -9 0 -9 -5 0 -6 -7 -11 -15 -11 -8 0 -15 -4 -15 -9 0 -5 -19
-16 -42 -26 -24 -9 -45 -20 -48 -24 -8 -11 -109 -71 -120 -71 -6 0 -10 -4 -10
-10 0 -5 -6 -10 -13 -10 -7 0 -39 -20 -72 -44 -32 -25 -71 -51 -85 -58 -14 -7
-32 -19 -40 -27 -8 -8 -38 -29 -66 -47 -45 -29 -116 -84 -164 -128 -8 -7 -32
-25 -53 -39 -21 -14 -47 -37 -58 -52 -11 -14 -25 -25 -31 -25 -6 0 -26 -18
-45 -40 -19 -22 -38 -40 -43 -40 -10 0 -320 -310 -320 -320 0 -4 -16 -22 -35
-39 -19 -17 -35 -35 -35 -40 0 -5 -15 -22 -33 -38 -18 -16 -36 -37 -40 -46 -3
-9 -11 -17 -17 -17 -5 0 -10 -6 -10 -14 0 -7 -16 -26 -35 -40 -20 -15 -33 -31
-30 -36 3 -5 -1 -12 -8 -17 -8 -4 -20 -19 -27 -33 -15 -28 -61 -90 -98 -132
-13 -14 -23 -28 -21 -30 4 -3 -58 -96 -78 -116 -7 -7 -13 -20 -13 -28 0 -8 -4
-14 -10 -14 -5 0 -10 -7 -10 -15 0 -8 -4 -15 -10 -15 -5 0 -10 -5 -10 -11 0
-6 -13 -30 -29 -54 -16 -24 -32 -53 -36 -64 -3 -12 -11 -21 -16 -21 -5 0 -8
-3 -7 -7 3 -10 -37 -87 -54 -104 -8 -8 -26 -45 -42 -82 -16 -38 -35 -75 -43
-83 -8 -8 -11 -14 -8 -14 4 0 -2 -15 -12 -32 -11 -18 -28 -57 -38 -85 -10 -29
-23 -53 -27 -53 -4 0 -7 -3 -6 -7 4 -13 -34 -103 -43 -103 -5 0 -8 -3 -7 -7 2
-10 -13 -64 -21 -78 -3 -5 -7 -19 -8 -30 -2 -10 -9 -23 -16 -27 -6 -4 -9 -8
-5 -8 10 0 -32 -114 -44 -118 -4 -2 -5 -8 -2 -13 3 -6 1 -15 -4 -22 -6 -7 -13
-32 -17 -56 -3 -23 -11 -55 -17 -70 -6 -14 -10 -32 -9 -38 1 -7 -3 -13 -9 -13
-6 0 -9 -4 -6 -8 4 -7 -39 -182 -57 -232 -6 -16 -18 -86 -18 -110 -1 -8 -3
-22 -6 -30 -3 -8 -6 -22 -7 -30 -6 -64 -32 -200 -39 -200 -4 0 -6 -4 -3 -9 7
-10 -15 -224 -24 -231 -20 -18 -17 -792 3 -860 5 -17 40 -280 42 -321 1 -14 4
-30 7 -35 3 -5 9 -27 12 -49 4 -22 9 -56 12 -75 4 -19 9 -57 11 -85 3 -27 8
-52 13 -55 6 -4 53 -175 56 -205 0 -5 6 -23 13 -40 7 -16 17 -52 23 -80 6 -27
14 -59 19 -70 29 -70 38 -98 33 -106 -3 -5 -1 -9 4 -9 8 0 39 -78 35 -90 -1
-3 2 -9 6 -15 7 -9 12 -26 22 -70 2 -5 9 -16 16 -23 12 -12 17 -34 14 -54 0
-5 3 -8 8 -8 7 0 54 -100 56 -120 1 -3 31 -65 67 -137 37 -73 64 -133 62 -133
-3 0 4 -9 14 -20 10 -11 32 -46 48 -78 17 -31 38 -69 48 -85 18 -27 18 -29 -3
-79 -11 -28 -21 -58 -21 -67 0 -10 -5 -22 -12 -29 -7 -7 -9 -12 -5 -12 8 0
-63 -203 -74 -210 -4 -3 -10 -21 -12 -40 -3 -19 -6 -36 -7 -37 -2 -2 -3 -6 -4
-10 -8 -40 -30 -103 -36 -103 -4 0 -7 -6 -6 -13 1 -16 -35 -121 -44 -127 -4
-3 -10 -21 -13 -40 -7 -54 -18 -90 -27 -90 -4 0 -7 -6 -7 -12 2 -22 -26 -98
-35 -98 -5 0 -7 -4 -4 -8 5 -9 -109 -359 -124 -376 -5 -7 -11 -25 -14 -41 -2
-17 -5 -31 -6 -32 -2 -2 -3 -6 -4 -10 -8 -40 -30 -103 -36 -103 -4 0 -7 -6 -7
-12 2 -22 -26 -98 -35 -98 -5 0 -6 -5 -3 -10 4 -6 2 -16 -3 -23 -6 -7 -13 -26
-16 -42 -2 -17 -5 -30 -6 -30 -1 0 -4 -11 -6 -25 -3 -14 -9 -26 -14 -28 -5 -2
-6 -10 -3 -18 3 -8 0 -14 -7 -14 -6 0 -9 -4 -6 -9 7 -11 -16 -71 -27 -71 -4 0
-6 -4 -2 -9 3 -5 -3 -33 -14 -63 -11 -29 -22 -68 -26 -86 -4 -17 -11 -32 -17
-32 -6 0 -9 -3 -6 -6 7 -7 -48 -174 -62 -188 -6 -6 -10 -20 -10 -32 0 -13 -5
-35 -12 -51 -6 -15 -12 -30 -12 -33 -11 -47 -31 -100 -39 -100 -6 0 -8 -2 -5
-5 3 -3 24 2 48 10 23 8 46 12 51 9 5 -3 9 -1 9 4 0 5 28 17 62 27 35 9 118
35 186 57 67 22 128 41 135 42 7 1 18 5 24 9 7 5 13 5 13 1 0 -3 7 -1 15 6 8
7 15 10 15 6 0 -3 16 1 36 9 20 8 40 12 45 9 5 -3 9 0 9 6 0 7 7 10 15 6 8 -3
15 -1 15 5 0 6 7 9 15 5 8 -3 15 -2 15 2 0 7 117 49 159 57 9 2 16 4 16 5 0 1
16 4 35 7 19 2 37 8 40 12 8 12 101 41 111 35 5 -3 9 0 9 6 0 7 7 10 15 6 8
-3 15 -1 15 5 0 6 6 9 14 6 8 -3 16 -2 18 3 2 5 37 18 78 29 41 11 127 38 190
60 63 22 130 43 149 46 19 3 42 10 53 16 10 5 22 7 27 4 5 -3 11 -1 13 3 3 8
150 61 181 66 7 1 17 5 23 8 11 7 68 20 92 21 6 0 12 3 12 7 0 9 71 30 82 24
4 -3 8 0 8 6 0 7 7 10 15 6 8 -3 15 -1 15 5 0 6 7 9 15 5 8 -3 15 -2 15 2 0
10 86 37 145 48 22 3 45 10 50 14 22 15 157 60 166 54 5 -3 9 0 9 6 0 7 7 10
15 6 8 -3 15 -1 15 5 0 5 6 9 13 8 6 -1 20 1 30 6 22 9 97 -11 97 -27 0 -6 3
-8 6 -5 8 8 64 -24 64 -36 0 -4 4 -6 9 -2 5 3 16 -1 24 -10 8 -8 28 -17 43
-19 16 -3 30 -10 32 -16 2 -5 7 -8 12 -5 5 3 15 -2 24 -10 8 -9 17 -15 18 -14
7 4 48 -13 48 -20 0 -4 6 -8 13 -8 6 0 28 -7 47 -15 19 -9 68 -28 108 -44 39
-15 72 -31 72 -36 0 -5 4 -7 9 -4 5 3 31 -3 57 -13 61 -24 87 -34 97 -36 4 -2
9 -4 12 -5 3 -1 8 -3 13 -4 43 -9 102 -31 102 -38 0 -5 4 -7 9 -4 8 5 82 -15
126 -34 11 -5 38 -12 59 -15 48 -7 88 -16 101 -23 5 -4 17 -7 25 -7 30 -2 285
-57 305 -66 11 -4 54 -10 95 -13 41 -3 91 -7 110 -10 19 -2 73 -6 120 -10 47
-3 99 -8 115 -11 32 -5 285 -18 345 -17 100 1 439 24 550 38 25 3 79 7 120 10
41 3 85 10 97 16 12 6 29 8 37 5 9 -4 16 -1 16 4 0 7 11 9 25 7 13 -3 26 -2
27 1 3 6 185 50 233 57 11 1 20 3 20 4 0 2 9 4 20 6 47 7 83 17 178 49 55 19
104 32 108 29 4 -2 9 0 11 5 3 9 101 40 138 44 8 1 17 5 20 9 9 12 108 47 114
41 3 -4 6 -2 6 4 0 5 19 16 43 23 23 8 77 31 120 52 43 21 99 47 125 57 26 11
79 37 119 59 39 22 74 37 77 34 3 -3 6 0 6 6 0 6 10 14 22 18 12 3 50 24 85
45 35 22 66 39 69 39 3 0 12 7 20 15 9 8 24 15 34 15 10 0 21 7 24 16 3 8 10
13 15 10 5 -3 12 1 15 10 3 8 10 13 15 10 5 -3 12 1 15 10 3 8 10 12 16 9 5
-3 10 -1 10 5 0 6 10 14 23 19 12 5 46 27 74 50 29 22 55 41 58 41 3 0 11 4
18 10 71 58 127 100 135 100 6 0 12 7 16 15 3 8 11 15 18 15 7 0 19 9 26 20 7
11 16 20 21 20 9 0 37 24 103 88 16 15 28 24 28 20 0 -10 120 104 264 251 160
164 186 191 183 194 -1 2 15 21 73 85 16 19 30 38 30 43 0 5 7 12 15 15 8 4
15 12 15 20 0 8 9 19 20 26 11 7 20 18 20 25 0 6 8 18 18 25 9 7 23 25 31 41
8 15 18 27 23 27 4 0 8 7 8 15 0 8 9 19 20 25 11 6 20 16 20 23 0 7 14 27 30
45 16 19 32 42 35 53 4 10 11 19 16 19 6 0 7 5 4 10 -3 6 1 13 9 16 9 3 14 10
11 14 -3 5 2 13 11 18 9 5 15 11 14 13 -4 8 23 59 32 59 4 0 8 6 8 13 0 6 21
44 46 82 25 39 53 87 61 108 8 20 19 37 25 37 5 0 7 4 4 8 -3 5 4 19 15 30 11
12 17 22 14 22 -2 0 8 26 24 58 16 31 44 90 62 130 17 39 36 72 40 72 5 0 9 7
9 17 0 19 88 243 101 258 5 5 9 19 9 30 0 12 3 25 7 29 4 3 8 17 10 29 2 12 8
23 13 25 5 2 6 10 3 18 -3 8 0 14 7 14 6 0 9 4 6 8 -3 5 11 55 30 113 19 57
37 120 40 139 3 19 9 39 12 45 3 5 7 16 7 25 4 33 60 265 66 270 3 3 9 39 12
80 4 41 15 147 27 235 22 174 40 430 40 565 0 124 -18 397 -35 534 -8 66 -13
122 -10 124 2 3 0 12 -5 21 -5 10 -11 55 -15 102 -3 46 -10 93 -15 104 -9 20
-62 247 -65 275 0 9 -4 20 -7 25 -3 6 -9 26 -12 46 -3 20 -10 49 -16 63 -5 15
-8 32 -4 37 3 5 1 9 -4 9 -10 0 -43 100 -36 112 3 4 0 8 -6 8 -7 0 -10 6 -7
14 3 8 2 16 -3 18 -5 2 -11 14 -14 28 -2 14 -5 26 -7 28 -1 1 -2 5 -4 10 -2 8
-8 23 -38 101 -11 29 -20 60 -20 67 0 8 -4 14 -8 14 -8 0 -34 70 -31 83 1 4
-2 7 -6 7 -5 0 -9 6 -9 13 0 8 -21 55 -47 105 -25 51 -43 92 -39 92 4 0 2 4
-5 8 -7 5 -14 18 -17 29 -2 12 -11 33 -20 47 -10 14 -14 26 -11 26 4 0 -2 10
-13 21 -11 12 -28 42 -38 65 -10 24 -22 44 -26 44 -5 0 -6 4 -2 9 3 5 -1 15
-8 23 -21 22 -48 68 -40 68 5 0 3 4 -3 8 -11 7 -85 126 -85 137 0 2 -11 17
-24 31 -14 15 -25 33 -25 40 0 8 -4 14 -10 14 -5 0 -10 7 -10 15 0 8 -9 23
-20 32 -11 10 -20 23 -20 30 0 7 -4 13 -9 13 -5 0 -23 21 -40 48 -17 26 -35
53 -41 59 -6 7 -9 15 -8 18 2 2 -7 12 -19 20 -13 9 -23 21 -23 27 0 6 -17 30
-37 53 -21 23 -54 61 -73 84 -19 23 -42 49 -50 58 -8 9 -15 19 -15 22 -1 3
-22 27 -48 54 -27 26 -45 47 -42 47 3 0 0 6 -7 14 -7 8 -16 12 -19 10 -4 -2
-21 13 -38 34 -43 51 -103 112 -112 112 -3 0 -17 16 -30 35 -13 19 -28 35 -33
35 -4 0 -28 20 -53 45 -24 25 -68 63 -98 85 -29 22 -60 48 -67 58 -7 10 -23
24 -36 31 -13 7 -52 37 -87 67 -36 30 -68 54 -72 54 -4 0 -34 20 -65 45 -32
25 -61 45 -66 45 -4 0 -22 13 -40 29 -17 17 -32 27 -32 25 0 -3 -21 9 -47 28
-27 19 -60 40 -75 48 -16 7 -28 17 -28 22 0 5 -4 7 -9 4 -5 -3 -20 5 -34 18
-14 13 -28 21 -31 18 -3 -3 -6 0 -6 6 0 6 -13 13 -30 17 -16 4 -30 11 -30 16
0 6 -4 8 -8 5 -5 -3 -20 5 -33 17 -13 12 -25 21 -26 20 -8 -7 -21 -1 -41 17
-12 12 -22 18 -22 14 0 -3 -6 -1 -14 5 -8 7 -24 14 -37 16 -12 3 -26 10 -31
17 -4 7 -8 10 -8 6 0 -4 -38 13 -85 38 -47 24 -87 44 -90 43 -13 -2 -95 35
-95 42 0 5 -3 8 -7 7 -10 -4 -107 33 -113 43 -3 4 -20 9 -38 12 -18 3 -40 11
-48 17 -7 7 -14 10 -14 6 0 -5 -172 51 -225 74 -11 5 -38 12 -60 15 -22 4 -44
10 -50 13 -5 4 -14 7 -20 7 -28 2 -125 29 -125 36 0 4 -9 5 -20 2 -11 -3 -20
-1 -20 5 0 6 -9 8 -20 5 -12 -3 -20 0 -20 6 0 7 -4 10 -9 6 -5 -3 -29 -1 -53
4 -71 16 -100 21 -158 27 -30 3 -59 9 -64 14 -5 5 -15 6 -22 3 -8 -3 -22 -2
-31 2 -10 4 -30 7 -45 6 -14 -1 -29 3 -33 9 -3 5 -11 8 -16 5 -5 -4 -51 -1
-102 5 -189 22 -597 41 -620 29z m428 -771 c83 -5 154 -13 160 -16 5 -3 22 -5
37 -3 14 1 29 -2 32 -7 3 -6 14 -8 24 -5 10 2 76 -8 148 -23 71 -14 152 -30
179 -35 79 -13 275 -71 275 -81 0 -5 5 -6 10 -3 6 4 16 2 23 -3 7 -6 26 -13
42 -16 17 -2 30 -5 30 -6 0 -1 9 -3 19 -5 39 -7 136 -48 136 -57 0 -5 4 -6 10
-3 5 3 28 -4 51 -15 23 -12 50 -23 61 -25 28 -6 272 -126 280 -139 4 -6 8 -7
8 -3 0 11 60 -25 60 -36 0 -4 4 -6 9 -3 5 3 19 -3 32 -13 14 -10 41 -26 62
-34 20 -9 37 -21 37 -27 0 -6 4 -9 9 -6 5 3 20 -5 34 -18 14 -13 28 -21 31
-18 3 3 6 1 6 -4 0 -6 17 -18 39 -27 21 -10 50 -28 65 -42 15 -14 30 -25 34
-25 4 0 15 -9 25 -20 9 -11 24 -20 32 -20 8 0 15 -4 15 -8 0 -5 9 -13 20 -18
10 -5 47 -34 81 -64 34 -30 66 -55 70 -55 4 0 23 -14 41 -31 71 -68 89 -84 96
-84 4 0 67 -62 141 -137 120 -124 157 -164 241 -258 14 -16 24 -32 23 -37 -2
-4 1 -8 7 -8 9 0 89 -101 92 -117 1 -5 12 -16 25 -26 13 -10 23 -24 23 -32 0
-7 7 -15 15 -19 8 -3 15 -12 15 -19 0 -8 9 -22 20 -32 11 -10 18 -20 16 -22
-2 -2 6 -15 19 -29 13 -14 31 -42 41 -62 9 -20 20 -39 23 -42 11 -9 81 -120
76 -120 -3 0 -1 -6 5 -12 23 -27 166 -310 173 -341 1 -6 8 -18 15 -25 7 -8 10
-18 7 -23 -4 -5 -1 -9 4 -9 6 0 10 -3 9 -7 -1 -5 3 -19 10 -33 28 -65 92 -230
95 -247 1 -10 6 -23 9 -29 4 -6 10 -26 13 -45 3 -19 10 -43 15 -54 17 -35 60
-197 55 -205 -3 -5 -1 -10 4 -12 6 -1 12 -21 15 -43 2 -22 5 -40 7 -40 2 0 7
-30 14 -95 4 -30 10 -66 15 -80 14 -39 32 -169 27 -184 -3 -7 -1 -18 4 -23 21
-21 33 -564 17 -775 -9 -120 -39 -322 -48 -328 -5 -3 -11 -34 -14 -70 -6 -65
-12 -105 -16 -105 -1 0 -3 -11 -4 -25 -5 -46 -18 -100 -25 -100 -3 0 -7 -15
-8 -32 -2 -18 -7 -34 -13 -36 -6 -2 -8 -7 -5 -12 2 -4 -5 -36 -16 -71 -12 -35
-23 -71 -24 -79 -2 -8 -4 -16 -5 -17 -2 -2 -4 -7 -5 -13 -1 -5 -3 -11 -5 -12
-1 -2 -3 -11 -5 -20 -8 -44 -38 -118 -46 -118 -6 0 -8 -4 -5 -9 3 -5 -5 -33
-19 -63 -14 -29 -25 -58 -25 -64 0 -17 -141 -308 -152 -315 -5 -3 -8 -9 -6
-12 1 -4 -6 -17 -17 -29 -10 -13 -19 -25 -19 -28 1 -14 -21 -60 -29 -60 -4 0
-6 -4 -3 -8 3 -5 -4 -19 -15 -30 -11 -12 -16 -22 -12 -22 4 0 -1 -7 -11 -15
-11 -8 -16 -15 -12 -15 4 0 -8 -21 -27 -48 -19 -26 -35 -50 -36 -55 -1 -13
-53 -87 -61 -87 -5 0 -13 -13 -19 -30 -5 -16 -15 -30 -20 -30 -6 0 -11 -7 -11
-15 0 -9 -7 -18 -15 -21 -8 -4 -15 -11 -15 -16 0 -11 -39 -62 -85 -111 -16
-17 -30 -35 -30 -40 0 -5 -7 -14 -15 -20 -8 -7 -35 -37 -60 -67 -85 -104 -377
-388 -457 -445 -15 -11 -39 -32 -53 -47 -13 -16 -30 -28 -37 -28 -7 0 -13 -4
-13 -10 0 -5 -6 -10 -14 -10 -8 0 -16 -7 -20 -15 -3 -8 -12 -15 -20 -15 -7 0
-16 -7 -20 -15 -3 -8 -12 -15 -20 -15 -7 0 -16 -7 -20 -15 -3 -8 -12 -15 -19
-15 -8 0 -22 -9 -32 -20 -10 -11 -20 -18 -22 -16 -2 2 -18 -9 -35 -25 -17 -15
-35 -26 -40 -23 -4 3 -8 0 -8 -6 0 -6 -15 -17 -34 -25 -19 -8 -38 -19 -41 -25
-4 -6 -11 -8 -16 -5 -5 4 -9 2 -9 -4 0 -11 -60 -47 -72 -43 -5 1 -8 -2 -8 -8
0 -5 -6 -10 -12 -10 -7 0 -42 -18 -78 -40 -35 -22 -94 -52 -130 -67 -36 -15
-67 -30 -70 -33 -8 -9 -84 -41 -94 -40 -5 1 -12 -3 -16 -9 -7 -12 -110 -51
-135 -51 -8 0 -15 -5 -15 -11 0 -6 -7 -9 -15 -5 -8 3 -15 2 -15 -2 0 -8 -81
-40 -117 -47 -10 -2 -19 -4 -20 -5 -2 -2 -7 -4 -13 -5 -5 -1 -12 -4 -15 -5 -3
-1 -9 -4 -15 -5 -5 -1 -12 -4 -15 -5 -3 -1 -9 -4 -15 -5 -5 -1 -11 -3 -12 -5
-2 -1 -10 -3 -18 -5 -8 -1 -54 -15 -102 -29 -49 -15 -92 -24 -98 -21 -5 3 -10
1 -10 -6 0 -6 -8 -9 -20 -6 -11 3 -20 1 -20 -5 0 -5 -8 -8 -17 -6 -10 1 -23
-1 -30 -5 -7 -4 -29 -10 -50 -12 -21 -3 -56 -7 -78 -10 -22 -3 -62 -10 -88
-16 -26 -6 -57 -9 -67 -6 -11 3 -20 2 -20 -3 0 -7 -233 -34 -260 -29 -8 1 -23
-1 -33 -6 -10 -4 -141 -5 -290 -2 -250 5 -423 20 -547 47 -25 5 -70 12 -100
15 -60 6 -217 42 -345 79 -44 13 -108 31 -142 41 -35 10 -63 22 -63 27 0 5 -4
7 -9 4 -11 -7 -71 16 -71 27 0 4 -5 5 -10 2 -6 -4 -21 0 -34 8 -13 9 -39 19
-60 22 -20 4 -36 11 -36 17 0 5 -4 7 -8 4 -17 -10 -476 219 -494 246 -4 7 -8
9 -8 5 0 -5 -23 7 -50 27 -28 20 -55 36 -60 36 -6 0 -10 5 -10 11 0 5 -5 7
-10 4 -6 -3 -13 0 -16 8 -6 16 14 22 -284 -74 -74 -24 -139 -44 -145 -45 -5 0
-23 -6 -38 -12 -16 -7 -34 -12 -40 -12 -7 0 -36 -9 -65 -20 -29 -11 -57 -18
-63 -15 -5 4 -9 2 -9 -2 0 -8 -115 -50 -159 -58 -9 -2 -16 -4 -16 -5 0 -1 -10
-3 -22 -6 -43 -8 -48 -9 -53 -15 -9 -11 -102 -39 -111 -33 -5 3 -9 0 -9 -6 0
-7 -7 -10 -15 -6 -8 3 -15 1 -15 -5 0 -6 -6 -9 -14 -6 -8 3 -16 2 -18 -3 -2
-5 -37 -18 -78 -29 -41 -10 -113 -33 -159 -50 -46 -17 -88 -28 -92 -25 -5 3
-9 0 -9 -6 0 -7 -6 -10 -14 -7 -8 3 -17 3 -21 -1 -4 -4 -10 -7 -13 -8 -4 0
-15 -4 -24 -8 -29 -13 -50 1 -42 26 3 13 11 25 15 26 5 2 7 7 4 12 -2 4 7 36
21 71 13 35 26 73 29 84 2 11 4 21 6 23 1 1 2 5 3 10 8 41 30 102 37 102 5 0
8 3 7 7 -4 16 14 73 22 73 5 0 7 7 4 15 -4 8 -1 15 6 15 6 0 8 4 5 10 -3 5 -1
18 4 28 6 11 12 32 15 48 7 37 78 237 86 244 4 3 9 21 13 40 3 19 10 49 17 65
6 17 12 32 12 35 1 14 61 176 68 185 5 6 11 24 14 40 2 17 5 31 6 33 2 1 4 7
5 12 1 6 4 12 5 15 1 3 3 8 4 13 1 4 6 22 10 39 4 18 12 33 17 33 6 0 8 4 5 8
-3 5 6 39 20 76 l24 68 -30 36 c-16 20 -30 42 -30 49 0 7 -4 13 -10 13 -5 0
-10 7 -10 15 0 8 -4 15 -10 15 -5 0 -10 5 -10 10 0 6 -8 20 -19 31 -10 11 -27
37 -37 59 -10 22 -22 40 -26 40 -5 0 -8 4 -8 10 0 5 -18 39 -40 75 -22 36 -37
65 -34 65 2 0 0 6 -6 12 -17 21 -122 228 -115 228 4 0 -1 7 -9 16 -9 8 -14 20
-11 25 4 5 2 9 -3 9 -5 0 -9 6 -9 13 0 6 -16 47 -36 89 -21 43 -38 86 -40 95
-2 10 -8 27 -15 39 -6 11 -13 32 -16 45 -2 13 -22 77 -45 143 -22 65 -39 122
-36 126 3 5 1 11 -4 14 -8 5 -20 52 -26 106 -1 8 -7 34 -14 58 -7 23 -9 47 -6
52 3 6 2 10 -3 10 -9 0 -49 202 -59 297 -3 32 -8 83 -11 113 -8 77 -8 691 1
770 3 36 6 78 6 93 1 16 3 33 7 38 3 6 8 36 10 67 2 31 8 58 13 60 6 2 8 9 5
16 -3 7 5 55 16 107 12 52 30 135 41 184 20 93 75 272 90 290 4 6 10 24 13 40
2 17 5 31 6 33 2 1 3 5 4 10 6 30 42 112 49 112 4 0 6 4 3 8 -3 5 8 37 25 71
17 34 32 70 34 80 5 27 145 301 154 301 4 0 8 6 8 13 0 8 14 35 32 60 17 26
29 47 26 47 -3 0 11 25 31 55 20 30 41 55 45 55 5 0 9 9 9 20 0 11 5 20 10 20
6 0 10 7 10 15 0 8 5 15 10 15 6 0 10 6 10 14 0 8 8 21 19 28 10 7 19 16 19
21 2 10 32 53 55 78 9 10 17 21 17 24 -1 9 84 115 92 115 5 0 8 6 8 13 0 7 40
54 90 106 50 51 90 97 90 100 0 14 77 81 85 74 4 -5 5 -3 2 4 -4 7 18 33 53
65 34 29 93 83 133 121 39 37 76 67 82 67 6 0 16 9 23 20 7 11 16 20 21 20 5
0 26 15 46 33 20 17 40 31 43 31 4 -1 13 7 20 17 7 11 19 19 25 19 7 0 30 15
52 34 22 19 43 32 47 30 4 -3 11 4 17 14 5 10 27 27 48 38 21 10 40 21 43 24
15 16 90 59 90 53 0 -5 5 0 11 10 6 9 14 15 20 12 5 -4 9 -2 9 2 0 8 48 30 62
29 4 -1 14 8 22 19 9 11 16 16 16 10 0 -6 3 -6 8 1 12 17 79 54 85 47 4 -3 7
-1 7 5 0 7 9 12 19 12 11 0 23 5 26 10 4 6 11 8 16 5 5 -4 9 -2 9 3 0 10 100
58 112 55 4 -2 8 2 8 8 0 5 5 7 10 4 6 -3 10 -1 10 6 0 7 3 10 6 6 4 -3 19 0
35 9 16 8 29 11 29 7 0 -5 4 -3 8 3 7 10 126 63 152 68 8 1 25 7 37 14 13 7
42 15 65 18 24 4 45 10 48 14 14 21 328 101 408 104 12 1 22 4 22 7 0 9 139
31 151 24 5 -4 9 -2 9 3 0 5 44 14 98 20 121 13 114 13 196 17 38 2 71 6 73 9
9 9 371 5 528 -6z"/>
<path d="M3409 7392 c-13 -6 -41 -15 -61 -18 -21 -4 -38 -11 -38 -17 0 -6 -3
-7 -6 -4 -4 3 -15 -5 -26 -18 -11 -14 -23 -25 -26 -25 -11 0 -178 -166 -185
-184 -4 -9 -11 -16 -17 -16 -5 0 -10 -6 -10 -14 0 -8 -14 -26 -31 -40 -17 -14
-28 -26 -24 -26 3 0 -5 -15 -19 -33 -15 -19 -26 -39 -26 -45 0 -7 -5 -12 -10
-12 -6 0 -9 -3 -8 -7 3 -13 -35 -83 -44 -83 -5 0 -6 -4 -3 -10 3 -5 1 -10 -4
-10 -6 0 -11 -6 -11 -14 0 -8 -16 -65 -36 -128 -19 -62 -44 -167 -55 -233 -20
-119 -21 -137 -6 -397 1 -21 5 -38 8 -38 6 0 34 -136 32 -157 0 -7 2 -13 6
-13 6 0 24 -56 37 -112 1 -5 2 -9 3 -10 2 -2 4 -12 6 -24 3 -11 16 -45 29 -74
14 -30 23 -57 20 -62 -3 -4 -1 -8 5 -8 8 0 22 -26 26 -50 0 -3 9 -20 18 -37
10 -18 15 -33 12 -33 -4 0 2 -12 13 -27 29 -41 92 -164 92 -179 0 -7 4 -14 8
-16 9 -3 92 -123 92 -132 0 -3 16 -28 35 -55 19 -26 35 -53 35 -60 0 -6 5 -11
10 -11 6 0 10 -7 10 -15 0 -8 5 -15 10 -15 6 0 10 -4 10 -9 0 -9 123 -195 148
-223 8 -10 11 -18 6 -18 -5 0 2 -7 14 -16 12 -8 22 -21 22 -29 0 -8 6 -18 14
-22 8 -4 16 -14 18 -21 2 -7 22 -33 46 -59 23 -25 42 -49 42 -54 0 -4 16 -25
35 -46 19 -21 35 -41 35 -45 0 -4 20 -29 45 -55 24 -26 45 -53 45 -60 0 -6 4
-13 8 -15 4 -1 36 -34 71 -73 94 -103 341 -355 341 -347 0 4 20 -14 45 -40 25
-26 45 -44 45 -40 0 3 17 -10 38 -30 65 -64 80 -76 85 -72 3 3 14 -6 25 -20
11 -15 25 -26 31 -26 6 0 11 -4 11 -10 0 -5 6 -10 13 -10 7 0 30 -16 51 -35
21 -19 42 -35 46 -35 4 0 15 -9 25 -20 10 -11 24 -20 32 -20 7 0 13 -4 13 -10
0 -5 6 -10 14 -10 8 0 22 -10 30 -22 9 -12 16 -19 16 -14 0 5 15 -3 34 -18 19
-14 39 -26 45 -26 6 0 11 -5 11 -11 0 -5 4 -8 8 -5 5 3 19 -4 30 -15 12 -11
22 -16 22 -12 0 4 7 -1 15 -11 8 -11 15 -16 15 -10 0 5 7 0 16 -11 8 -11 17
-19 20 -17 8 5 104 -42 104 -51 0 -5 4 -5 10 -2 6 3 10 1 10 -5 0 -6 5 -8 10
-5 6 3 10 1 10 -6 0 -7 3 -10 6 -6 6 6 64 -19 74 -33 3 -3 26 -12 53 -20 26
-7 47 -17 47 -21 0 -5 3 -8 8 -7 13 5 122 -44 122 -55 0 -6 3 -8 6 -4 4 3 19
0 35 -9 16 -8 29 -12 29 -8 0 3 11 -1 25 -10 14 -9 25 -14 25 -12 0 9 145 -56
152 -68 4 -6 8 -8 8 -4 0 4 12 3 28 -3 15 -6 35 -12 45 -15 35 -7 192 -68 195
-76 2 -5 8 -5 13 -2 6 3 15 1 22 -4 7 -5 26 -12 42 -15 36 -6 70 -15 70 -17 0
-1 9 -3 20 -4 11 -2 56 -11 100 -20 101 -22 216 -23 325 -2 47 8 106 17 131
19 25 2 50 6 55 9 5 4 25 9 44 12 55 8 255 102 336 157 40 27 76 49 79 49 8 0
89 66 129 106 67 66 103 119 139 207 21 51 40 97 42 102 2 6 6 21 9 35 13 81
30 156 36 165 3 6 6 60 6 120 -1 125 -11 147 -78 180 -21 10 -38 23 -38 28 0
6 -3 8 -6 4 -3 -3 -27 7 -52 22 -26 15 -73 40 -104 56 -32 15 -58 33 -58 38 0
6 -3 8 -6 4 -3 -3 -27 8 -52 24 -25 16 -51 29 -58 29 -7 0 -20 7 -28 16 -9 8
-16 12 -16 9 0 -7 -91 43 -100 55 -3 4 -22 13 -42 19 -21 7 -38 17 -38 23 0 6
-3 8 -7 5 -6 -7 -73 30 -85 47 -4 6 -8 8 -8 4 0 -4 -62 24 -137 62 -128 63
-212 90 -270 87 -13 -1 -23 -5 -23 -10 0 -4 -4 -5 -10 -2 -5 3 -10 1 -10 -4 0
-6 -7 -11 -15 -11 -8 0 -15 -4 -15 -9 0 -14 -158 -210 -181 -224 -10 -6 -19
-15 -19 -19 0 -3 -30 -39 -67 -79 -168 -180 -209 -219 -250 -235 -38 -15 -46
-15 -97 0 -30 9 -58 21 -61 26 -3 6 -15 10 -26 10 -10 0 -19 5 -19 11 0 5 -4
7 -10 4 -5 -3 -10 -1 -10 5 0 6 -4 8 -10 5 -5 -3 -10 -1 -10 5 0 6 -4 8 -10 5
-5 -3 -10 -1 -10 4 0 6 -4 10 -9 8 -10 -3 -143 64 -153 78 -4 6 -8 6 -8 2 0
-11 -60 25 -60 36 0 4 -3 6 -8 3 -4 -2 -33 13 -64 35 -32 21 -60 39 -63 39
-10 0 -100 63 -103 72 -2 4 -10 8 -18 8 -8 0 -14 5 -14 10 0 6 -7 10 -15 10
-7 0 -18 6 -22 13 -4 6 -15 17 -24 22 -21 12 -153 119 -194 156 -64 57 -232
227 -277 279 -26 30 -66 76 -88 101 -22 25 -40 51 -40 57 0 6 -9 16 -20 22
-11 6 -20 17 -20 24 0 7 -9 21 -20 31 -11 10 -20 24 -20 30 0 7 -7 15 -15 19
-8 3 -15 12 -15 20 0 7 -7 17 -16 20 -8 3 -12 10 -9 16 3 5 1 10 -4 10 -6 0
-11 7 -11 15 0 8 -4 15 -8 15 -8 0 -43 54 -43 67 0 5 -7 12 -15 16 -8 4 -14
15 -14 22 0 8 -4 15 -9 15 -5 0 -12 14 -16 30 -4 17 -11 30 -16 30 -6 0 -7 5
-4 10 3 6 2 10 -3 10 -11 0 -40 41 -44 62 -2 7 -6 15 -9 18 -19 16 -36 75 -36
123 -1 64 3 71 100 170 128 131 215 237 271 334 52 88 57 102 55 150 -1 29 -5
53 -9 53 -8 0 -37 83 -32 89 2 2 -1 7 -8 11 -6 4 -12 17 -13 28 -1 12 -4 22
-8 22 -6 0 -11 12 -24 63 -2 4 -3 8 -5 10 -1 1 -4 15 -6 32 -3 16 -9 32 -13
35 -8 5 -57 131 -63 160 -2 8 -6 17 -10 20 -4 3 -9 17 -11 31 -3 14 -30 89
-61 166 -31 78 -56 153 -56 167 0 14 -4 26 -9 26 -8 0 -24 41 -25 65 -1 6 -7
16 -13 23 -11 12 -14 23 -13 47 1 3 -6 13 -15 21 -8 9 -15 21 -15 27 0 7 -15
28 -33 49 -42 45 -74 54 -247 64 -197 11 -243 10 -271 -4z"/>
</g>
</svg>
